<?xml version="1.0" standalone="no"?>
<!DOCTYPE svg PUBLIC "-//W3C//DTD SVG 20010904//EN"
 "http://www.w3.org/TR/2001/REC-SVG-20010904/DTD/svg10.dtd">
<svg version="1.0" xmlns="http://www.w3.org/2000/svg"
 width="62.000000pt" height="62.000000pt" viewBox="0 0 512.000000 512.000000"
 preserveAspectRatio="xMidYMid meet">
<metadata>
Created by potrace 1.16, written by Peter Selinger 2001-2019
</metadata>
<g transform="translate(0.000000,512.000000) scale(0.100000,-0.100000)"
fill="#000000" stroke="none">
<path d="M2770 4770 c-63 -5 -279 -16 -480 -25 -201 -9 -430 -20 -510 -23
l-145 -7 -11 -175 c-16 -237 -48 -457 -90 -610 -26 -94 -95 -292 -124 -355
-49 -107 -63 -140 -62 -147 1 -5 -3 -8 -10 -8 -6 0 -8 -3 -5 -6 3 -4 -3 -18
-13 -32 -11 -13 -20 -29 -20 -33 0 -12 -122 -197 -186 -284 -28 -38 -81 -104
-118 -145 l-66 -75 0 -126 c0 -109 2 -128 18 -142 10 -10 21 -17 24 -17 6 0
110 -58 163 -91 17 -10 37 -22 45 -25 8 -4 47 -26 85 -49 39 -23 178 -105 310
-180 132 -76 284 -165 338 -197 54 -32 100 -58 104 -58 3 0 3 71 -1 159 l-7
158 93 84 c51 46 96 88 99 93 4 4 44 49 90 99 76 81 191 220 240 288 10 14 15
30 11 34 -4 5 -2 5 4 2 6 -3 27 22 48 56 21 34 56 91 78 127 38 60 125 228
161 310 166 376 259 798 274 1238 l6 172 -114 -1 c-63 -1 -166 -5 -229 -9z"/>
<path d="M3270 4478 c0 -52 -24 -248 -45 -366 -39 -225 -133 -513 -237 -730
-29 -59 -51 -110 -50 -114 1 -5 -2 -8 -7 -8 -4 0 -23 -28 -41 -62 -30 -57
-127 -211 -157 -248 -7 -8 -33 -43 -58 -77 -118 -159 -385 -437 -555 -578 -54
-44 -61 -55 -58 -89 2 -27 16 -32 46 -17 9 5 69 35 132 66 63 31 122 62 130
69 8 6 35 22 60 36 38 20 78 46 214 140 94 64 282 237 384 353 59 67 208 271
254 347 55 93 178 342 213 432 62 161 165 512 165 564 0 6 -48 51 -107 100
-60 49 -110 91 -113 94 -9 9 -145 116 -157 124 -10 5 -13 -4 -13 -36z"/>
<path d="M3770 3797 c-19 -51 -34 -98 -33 -105 0 -7 -1 -11 -4 -8 -3 3 -36
-54 -72 -127 -94 -187 -174 -317 -285 -462 -136 -178 -378 -417 -546 -538
-142 -101 -179 -127 -186 -127 -4 0 -15 -6 -23 -14 -22 -20 -190 -115 -291
-166 -47 -23 -88 -48 -92 -54 -4 -6 -8 -8 -8 -4 0 8 -137 -47 -157 -63 -18
-16 -17 -58 3 -66 37 -14 385 50 509 93 39 14 97 34 130 45 96 33 328 152 438
226 154 102 343 269 459 406 29 34 60 69 69 77 56 54 269 368 344 508 l28 52
-23 43 c-27 47 -219 369 -223 373 -2 2 -18 -38 -37 -89z"/>
<path d="M3899 2933 c-121 -170 -348 -373 -564 -505 -340 -209 -784 -364
-1150 -402 l-110 -11 -3 -29 -4 -29 244 6 c335 9 680 51 883 108 39 11 79 22
89 24 112 25 402 149 514 221 96 62 197 128 202 134 3 3 28 23 55 45 28 22 67
56 88 75 l39 36 -52 102 c-31 63 -55 100 -62 96 -7 -4 -8 -2 -4 4 5 9 -79 188
-99 210 -2 2 -31 -36 -66 -85z"/>
<path d="M3005 1560 c-22 -10 -47 -25 -56 -32 -25 -21 -51 -66 -44 -78 3 -5 1
-10 -4 -10 -8 0 -11 -82 -11 -255 l0 -255 105 0 105 0 0 178 c0 108 4 171 10
162 9 -16 64 -210 83 -293 l11 -48 93 2 c68 1 93 5 93 14 0 7 -19 91 -41 186
-23 96 -49 207 -58 247 -9 40 -19 70 -23 67 -4 -4 -4 2 -1 13 3 14 -7 32 -34
60 -60 62 -152 79 -228 42z"/>
<path d="M3688 1571 c-73 -15 -111 -52 -133 -128 -38 -130 -125 -474 -125
-493 0 -18 6 -20 78 -20 114 0 116 2 134 73 23 92 76 269 82 275 4 3 6 -74 6
-172 l0 -177 105 2 106 1 -3 262 c-3 261 -3 263 -28 299 -42 62 -137 95 -222
78z"/>
<path d="M1605 1460 c-35 -58 -71 -119 -81 -136 -11 -18 -43 -70 -71 -117 -29
-47 -53 -97 -53 -111 0 -24 45 -119 73 -153 13 -17 247 -18 247 -2 0 16 -42
89 -52 89 -4 0 -7 3 -6 8 1 4 -4 19 -12 34 -12 26 -8 36 112 235 69 115 130
218 137 230 11 22 11 22 -110 25 l-121 3 -63 -105z"/>
<path d="M2043 1563 l-43 -4 0 -315 0 -315 110 2 110 1 0 29 0 29 125 0 c131
0 175 -10 175 -42 0 -16 10 -18 110 -18 l110 0 0 25 c0 38 -24 89 -54 112
l-26 21 30 32 c54 58 71 156 49 290 -12 75 -32 103 -99 134 -42 20 -63 21
-300 22 -140 1 -274 -1 -297 -3z m461 -209 c21 -8 23 -136 3 -152 -10 -9 -198
-17 -282 -13 -6 1 -9 34 -7 86 l3 85 134 0 c73 0 140 -3 149 -6z"/>
<path d="M1170 1245 l0 -316 108 3 107 3 3 313 2 312 -110 0 -110 0 0 -315z"/>
<path d="M1170 710 l0 -100 110 0 111 0 -3 98 -3 97 -107 3 -108 3 0 -101z"/>
<path d="M1560 804 c0 -4 26 -49 57 -100 l57 -94 123 0 c68 0 123 4 123 8 0 5
-13 28 -30 50 -16 23 -30 44 -30 48 0 3 -14 25 -30 50 l-31 44 -119 0 c-66 0
-120 -3 -120 -6z"/>
<path d="M2000 710 l0 -100 289 0 c313 0 352 5 399 56 28 30 52 84 52 119 l0
25 -370 0 -370 0 0 -100z"/>
<path d="M2890 710 l0 -100 105 0 105 0 0 100 0 100 -105 0 -105 0 0 -100z"/>
<path d="M3243 797 c2 -7 12 -39 22 -71 12 -37 32 -73 55 -98 33 -34 42 -38
84 -38 89 0 130 35 161 137 27 89 37 84 -156 83 -125 -1 -169 -5 -166 -13z"/>
<path d="M3730 710 l0 -100 105 0 106 0 -3 98 -3 97 -102 3 -103 3 0 -101z"/>
<path d="M1170 364 l0 -87 61 6 c75 7 99 26 99 79 0 60 -34 88 -105 88 l-55 0
0 -86z"/>
<path d="M1370 365 l0 -85 70 0 c63 0 70 2 70 20 0 17 -7 20 -44 20 -29 0 -46
5 -49 14 -7 17 13 26 59 26 19 0 34 5 34 10 0 6 -19 10 -43 10 -48 0 -58 5
-50 26 3 9 21 14 49 14 32 0 44 4 44 15 0 12 -14 15 -70 15 l-70 0 0 -85z"/>
<path d="M1720 365 l0 -85 75 0 c68 0 75 2 75 20 0 17 -7 20 -51 20 -43 0 -50
3 -47 18 2 12 15 18 46 20 56 4 54 22 -3 22 -38 0 -45 3 -45 20 0 17 7 20 51
20 36 0 49 4 47 13 -3 8 -30 13 -76 15 l-72 3 0 -86z"/>
<path d="M1904 428 c3 -13 6 -51 6 -85 0 -56 2 -63 20 -63 17 0 20 7 20 45 0
54 14 52 50 -5 16 -27 31 -40 46 -40 21 0 23 5 26 85 3 82 2 85 -19 85 -20 0
-23 -5 -23 -45 0 -25 -4 -45 -9 -45 -5 0 -22 20 -38 45 -22 36 -34 45 -57 45
-25 0 -28 -3 -22 -22z"/>
<path d="M2317 443 c-3 -5 -4 -42 -3 -83 l2 -75 72 -3 c67 -3 72 -1 72 18 0
17 -6 20 -51 20 -43 0 -50 3 -47 18 2 12 15 18 46 20 55 4 51 27 -4 27 -28 0
-39 4 -39 15 0 11 13 16 48 18 33 2 47 7 47 18 0 11 -16 14 -69 14 -39 0 -72
-3 -74 -7z"/>
<path d="M2601 369 c-17 -44 -31 -83 -31 -85 0 -12 41 -2 46 11 4 10 20 15 44
15 24 0 40 -5 44 -15 6 -16 46 -21 46 -5 0 16 -33 95 -43 101 -5 3 -8 10 -8
15 2 27 -12 44 -39 44 -26 0 -31 -6 -59 -81z"/>
<path d="M2995 373 c-17 -42 -31 -80 -33 -85 -2 -4 8 -8 22 -8 16 0 26 6 26
15 0 11 11 15 39 15 25 0 41 -5 45 -15 3 -8 17 -15 30 -15 28 0 27 2 -8 85 -7
16 -18 42 -24 58 -9 20 -18 27 -39 27 -26 0 -31 -7 -58 -77z"/>
<path d="M3177 443 c-4 -3 -7 -42 -7 -85 l0 -78 54 0 c73 0 108 28 108 85 0
55 -36 85 -101 85 -26 0 -51 -3 -54 -7z"/>
<path d="M3370 365 l0 -85 75 0 c68 0 75 2 75 20 0 17 -7 20 -50 20 -43 0 -50
3 -50 20 0 17 7 20 45 20 25 0 45 5 45 10 0 6 -20 10 -45 10 -38 0 -45 3 -45
20 0 17 7 20 50 20 38 0 50 4 50 15 0 12 -15 15 -75 15 l-75 0 0 -85z"/>
<path d="M3558 448 c0 -2 -2 -40 -3 -85 -2 -79 -1 -83 20 -83 20 0 22 4 18 60
-2 33 0 60 4 60 5 0 15 -26 23 -57 13 -48 19 -59 39 -61 13 -2 21 0 19 5 -3 4
3 33 13 63 l17 55 1 -62 c1 -56 3 -63 21 -63 18 0 20 7 20 85 l0 85 -33 0
c-30 0 -33 -3 -48 -52 l-16 -53 -15 50 c-13 45 -18 50 -46 53 -18 2 -33 2 -34
0z"/>
</g>
</svg>
